<?xml version="1.0" encoding="UTF-8"?> <svg xmlns="http://www.w3.org/2000/svg" xmlns:xlink="http://www.w3.org/1999/xlink" xmlns:xodm="http://www.corel.com/coreldraw/odm/2003" xml:space="preserve" width="90mm" height="8.8026mm" version="1.1" style="shape-rendering:geometricPrecision; text-rendering:geometricPrecision; image-rendering:optimizeQuality; fill-rule:evenodd; clip-rule:evenodd" viewBox="0 0 8998.92 880.15"> <defs> <style type="text/css"> .fil0 {fill:black} </style> </defs> <g id="Слой_x0020_1"> <metadata id="CorelCorpID_0Corel-Layer"></metadata> <path class="fil0" d="M794.59 93.85c-6.3,21.58 -13,43.77 -20.84,67.64 -12.08,36.86 -26.51,76.36 -45.56,120.98 -17.62,41.28 -38.62,85.77 -60.52,129.64 -16.94,33.92 -34.81,68.24 -52.31,100.95 54.26,4.92 110.53,7.55 165.15,8.22 68.03,0.82 134.82,-1.42 192.86,-6.07 55.12,-4.42 100.66,-10.93 139.66,-18.1 39.7,-7.3 73.72,-15.46 104.27,-22.9l28.27 -6.96 0.32 -5.85c1.22,-30.17 -4.04,-61.02 -16.16,-93.34 -12.96,-34.58 -33.69,-70.75 -59.9,-104.31 -25.03,-32.08 -55.02,-61.52 -87.93,-84.67 -33.49,-23.53 -70.14,-40.56 -109.5,-53.06 -40.82,-12.98 -85.03,-21.38 -131.96,-27.3 -15.05,-1.91 -30.34,-3.54 -45.83,-4.88zm1118.4 773.76l124.31 0 -273.34 -757.29 -126.99 0 -102.38 283.5 -199.37 50.88c-0.96,-35.39 -8.13,-71.12 -21.88,-107.78 -16.13,-43.02 -41.47,-87.47 -73.2,-128.09 -30.4,-38.95 -66.82,-74.73 -106.83,-102.85 -41.05,-28.84 -85.89,-49.67 -133.98,-64.97 -46.64,-14.84 -95.97,-24.29 -147.71,-30.8l-0.17 0c-52.77,-6.64 -108.43,-10.31 -164.84,-10.19 -53.37,0.09 -107.2,3.49 -159.67,10.8 -56.83,7.91 -112.87,20.48 -164.25,37.69 -49.36,16.53 -94.36,37.25 -131.7,62.13 -40.18,26.79 -72.13,58.65 -94.35,92.55 -24.04,36.67 -36.87,75.95 -36.87,114.47 0,39.61 13.38,77.33 39.51,111.65 23.7,31.12 57.92,59.12 102.07,82.58 41.12,21.86 91.32,40.09 148.09,54.59l0.03 -0.16c26.5,6.78 54.4,12.77 83.51,17.97 -8.92,14.79 -17.67,28.54 -26.42,41.26 -9.15,13.33 -18.47,25.72 -28.15,37.24l-4.32 -3.01 -0.08 0.12c-27.58,-18.67 -51.61,-33.01 -74.78,-43.95 -24.55,-11.6 -48.23,-19.64 -73.82,-25.1 -26.83,-5.72 -56.07,-8.61 -84.86,-7.24 -26.61,1.27 -53.08,6.31 -77.28,16.19 -26.79,10.95 -50.13,27.54 -67.43,46.71 -19.05,21.13 -31.66,46.29 -34.95,72.02 -3.4,26.6 3.24,52.29 17.41,74.95l-0.13 0.08c13.28,21.22 33.35,39.64 57.68,53.09 22.83,12.63 49.81,21.02 80.33,24.06 27.2,2.7 57.2,1.11 89.42,-5.63 33.4,-6.98 69.57,-19.57 104.66,-37.23 27.13,-13.65 53.73,-30.35 78.04,-49.83 40.57,26.98 87.32,54.25 141.8,71.14 43.47,13.49 90.6,19.81 138.92,21.8 47.27,1.94 94.85,-0.16 140.92,-3.62 46.89,-3.5 92.96,-8.44 137.33,-18.19l0.18 0c45.96,-10.12 90.19,-25.51 131.74,-49.87 40.08,-23.48 76.47,-54.74 107.19,-89.62 32.58,-37 59.44,-78.83 78.08,-120.39 7.35,-16.38 13.42,-32.71 18.16,-49.08l175.21 -44.64 -134.38 372.08 122.34 0 69.32 -204.73 288.55 0 69.33 204.73zm-1224.24 -733.76c4.9,-14.97 9.49,-29.8 13.91,-44.54l-16.05 -0.07c-48.62,0.07 -98.31,3.27 -147.44,10.11 -51.79,7.21 -102.37,18.5 -148.15,33.84 -41.52,13.9 -79.23,31.24 -110.35,51.97 -30.12,20.07 -53.52,43.13 -69.17,67.01 -14.44,22.05 -22.16,44.53 -22.16,65.49 0,19.8 7.11,39.21 20.97,57.42 15.83,20.79 40.29,40.36 73.02,57.74 34.75,18.46 78.23,34.13 128.13,46.88l0 0.18c33.47,8.57 69.83,15.81 108.43,21.71 21.82,-39.95 45.23,-84.42 67.67,-129.35 21.84,-43.75 42.21,-86.81 58.41,-124.76 17.79,-41.69 31.36,-78.83 42.77,-113.64zm-120.27 464.23c-16.23,28.35 -31.98,54.24 -48.45,78.18 -8.99,13.05 -18.12,25.4 -27.53,37.08 31.48,19.94 66.24,38.78 103.85,50.44 35.64,11.06 75.17,16.26 116.19,17.96 42.09,1.73 86.73,-0.31 130.76,-3.61 43.17,-3.24 85.31,-7.71 124.94,-16.41 38.07,-8.41 73.8,-20.65 105.84,-39.43 31.11,-18.24 60.1,-43.31 85.15,-71.77 23.36,-26.54 42.93,-55.52 57.4,-84.31 -26.06,6.22 -54.73,12.68 -87.51,18.71 -42.78,7.87 -91.63,14.92 -148.75,19.5 -58.71,4.71 -128.19,6.95 -200.91,6.07 -66.59,-0.82 -134.91,-4.35 -198.82,-11.09l-12.16 -1.32zm-258.46 150c13.64,-6.87 27.14,-14.73 40.14,-23.53 -17.61,-11.37 -33.6,-20.52 -49.06,-27.82 -18.06,-8.53 -35.47,-14.45 -54.22,-18.45 -20.09,-4.29 -41.56,-6.47 -62.13,-5.5 -17.33,0.83 -33.84,3.81 -47.88,9.55 -13.66,5.57 -25.65,14.12 -34.56,23.99 -7.32,8.13 -12,16.35 -12.88,23.39 -0.68,5.3 1.02,11.05 4.5,16.61l0.18 0c5.15,8.26 13.8,15.89 24.78,21.95 12.77,7.06 28.23,11.8 46.06,13.57 18.37,1.83 39.3,0.63 62.46,-4.22 26.05,-5.45 54.59,-15.44 82.62,-29.54zm6512.77 17.79l-352.67 0 0 -655.55 -117.51 0 0 757.29 470.17 0 0 -101.74zm2176.13 0l-363.07 0 0 -235.17 343.73 0 0 -97.61 -343.73 0 0 -221.38 363.07 0 0 -101.39 -480.57 0 0 757.29 480.57 0 0 -101.74zm-877.86 101.74l270.28 -757.29 -125.54 0 -206.7 625.1 -3.23 0 -206.16 -625.1 -127.54 0 270.29 757.29 128.6 0zm-826.44 -769.83c-218.34,0 -354.84,150.64 -354.84,391.53 0,240.74 136.49,390.84 354.84,390.84 217.78,0 354.63,-150.1 354.63,-390.84 0,-240.89 -136.84,-391.53 -354.63,-391.53zm0 103.35c143.82,0 233.9,111.24 233.9,288.19 0,176.26 -90.08,287.49 -233.9,287.49 -143.84,0 -234.64,-111.23 -234.64,-287.49 0,-176.95 90.8,-288.19 234.64,-288.19zm-1298.96 666.48l0 -757.29 -117.5 0 0 320.26 -388.85 0 0 -320.26 -117.5 0 0 757.29 117.5 0 0 -335.3 388.85 0 0 335.3 117.5 0zm-994.28 0l0 -655.9 231.42 0 0 -101.39 -580.86 0 0 101.39 231.76 0 0 655.9 117.68 0zm-488.66 0l0 -757.29 -117.5 0 0 757.29 117.5 0zm-738.33 -571l5.21 0 163.7 571 110.69 0 204.73 -757.29 -122.34 0 -140.07 593.04 -4.11 0 -160.66 -593.04 -109.08 0 -160.13 593.04 -4.12 0 -140.07 -593.04 -122.34 0 204.2 757.29 111.23 0 163.17 -571zm-789.35 571l0 -757.29 -117.5 0 0 757.29 117.5 0zm-703.24 -658.59l161.57 0c90.81,0 145.97,51.4 145.97,135.95 0,86.5 -51.93,136.46 -142.74,136.46l-164.8 0 0 -272.42zm0 367.35l161.57 0 154.39 291.25 135.23 0 -169.44 -309.68c92.43,-30.81 146.87,-113.75 146.87,-216.18 0,-141.14 -97.08,-231.42 -252.91,-231.42l-293.2 0 0 757.29 117.49 0 0 -291.25zm-584.11 -339.95l3.23 0 112.84 332.07 -228.72 0 112.66 -332.07z"></path> </g> </svg> 